<svg width="640" height="760" viewBox="0 0 640 760" fill="none" xmlns="http://www.w3.org/2000/svg">
  <rect width="640" height="760" rx="56" fill="#F2F5FA"/>
  <circle cx="320" cy="252" r="130" fill="#D6E0EE"/>
  <path d="M320 398C225.301 398 148 475.301 148 570V760H492V570C492 475.301 414.699 398 320 398Z" fill="#DCE6F3"/>
  <path d="M252 218C252 180.444 282.444 150 320 150C357.556 150 388 180.444 388 218V260C388 297.556 357.556 328 320 328C282.444 328 252 297.556 252 260V218Z" fill="#FFF7F2"/>
  <path d="M267 222C267 185.549 296.549 156 333 156H348C384.451 156 414 185.549 414 222V227C414 240.807 402.807 252 389 252H345C301.922 252 267 217.078 267 174V222Z" fill="#1A2434"/>
  <path d="M245 237C245 185.085 287.085 143 339 143C380.974 143 416.526 170.502 428.661 208.481C431.376 216.974 426.116 226.086 417.263 227.089L372.628 232.144C331.826 236.765 291.358 220.501 264.964 188.72C252.529 203.472 245 222.532 245 243.351V237Z" fill="#26344A"/>
  <path d="M285 420H355L383 475L320 548L257 475L285 420Z" fill="#FFFFFF"/>
  <path d="M235 590C235 543.056 273.056 505 320 505C366.944 505 405 543.056 405 590V760H235V590Z" fill="#FFFFFF"/>
  <path d="M185 760C187.062 665.262 245.19 593 320 593C394.81 593 452.938 665.262 455 760H185Z" fill="#E9EFF7"/>
  <circle cx="468" cy="151" r="41" fill="#0F4C81" fill-opacity="0.1"/>
  <circle cx="498" cy="201" r="14" fill="#0F4C81" fill-opacity="0.18"/>
  <circle cx="142" cy="110" r="34" fill="#0F4C81" fill-opacity="0.08"/>
</svg>
